# xmcd
#
# Track frame offsets:
#	150
#	12795
#	27095
#	36365
#	46265
#	62682
#	74527
#	82332
#	89440
#	103377
#	116357
#	124120
#	139597
#	150160
#	164255
#	175522
#
# Disc length: 2436 seconds
#
# Revision: 2
# Processed by: cddbd v1.5.2PL0 Copyright (c) Steve Scherf et al.
# Submitted via: audiograbber 1.83.01
#
DISCID=cc098210
DTITLE=BBC All Stars Band - Salsa - Songs and Themes for the World of Dance
DYEAR=2002
DGENRE=Latin
TTITLE0=Fever
TTITLE1=Volare
TTITLE2=Mambo Italiano
TTITLE3=Spanish Flea
TTITLE4=Mambo No 5
TTITLE5=Night and Day
TTITLE6=Cherry Pink And Appleblossom Time
TTITLE7=Yeh Yeh
TTITLE8=Quando Quando
TTITLE9=Spanish Harlem
TTITLE10=Heatwave
TTITLE11=Brazil
TTITLE12=The Shadow of Your Smile
TTITLE13=Garota De Ipanema
TTITLE14=My Cherie Amour
TTITLE15=Blue Moon
EXTD=
EXTT0=
EXTT1=
EXTT2=
EXTT3=
EXTT4=
EXTT5=
EXTT6=
EXTT7=
EXTT8=
EXTT9=
EXTT10=
EXTT11=
EXTT12=
EXTT13=
EXTT14=
EXTT15=
PLAYORDER=
